<svg width="1263" height="129" viewBox="0 0 1263 129" fill="none" xmlns="http://www.w3.org/2000/svg">
<path d="M6.76349 103V25.1818H37.4652C43.3674 25.1818 48.3957 26.3091 52.5501 28.5636C56.7044 30.7927 59.8709 33.8958 62.0494 37.8729C64.2532 41.8246 65.3551 46.3842 65.3551 51.5518C65.3551 56.7195 64.2405 61.2791 62.0114 65.2308C59.7822 69.1825 56.5524 72.2603 52.3221 74.4641C48.1171 76.668 43.0255 77.7699 37.0472 77.7699H17.4787V64.5849H34.3874C37.5539 64.5849 40.163 64.0402 42.2148 62.951C44.292 61.8364 45.8372 60.3039 46.8505 58.3533C47.8891 56.3775 48.4084 54.1103 48.4084 51.5518C48.4084 48.968 47.8891 46.7135 46.8505 44.7883C45.8372 42.8378 44.292 41.3306 42.2148 40.2667C40.1377 39.1774 37.5032 38.6328 34.3114 38.6328H23.2163V103H6.76349Z" fill="#7D8F78"/>
<path d="M126.763 103V25.1818H143.216V89.435H176.578V103H126.763Z" fill="#97A7BE"/>
<path d="M237.763 103V25.1818H290.2V38.7468H254.216V57.2894H287.502V70.8544H254.216V89.435H290.352V103H237.763Z" fill="#836472"/>
<path d="M728.763 103V25.1818H781.2V38.7468H745.216V57.2894H778.502V70.8544H745.216V89.435H781.352V103H728.763Z" fill="#836472"/>
<path d="M353.763 103V25.1818H384.921C390.646 25.1818 395.421 26.0304 399.246 27.7276C403.071 29.4248 405.946 31.7807 407.871 34.7951C409.797 37.7842 410.759 41.2293 410.759 45.1303C410.759 48.1701 410.151 50.8426 408.935 53.1477C407.719 55.4276 406.048 57.3021 403.92 58.7713C401.817 60.2152 399.411 61.2411 396.7 61.8491V62.609C399.664 62.7357 402.438 63.5716 405.022 65.1168C407.631 66.662 409.746 68.8279 411.367 71.6143C412.988 74.3755 413.799 77.6686 413.799 81.4936C413.799 85.6226 412.773 89.3084 410.721 92.5508C408.695 95.7679 405.693 98.3137 401.716 100.188C397.739 102.063 392.837 103 387.011 103H353.763ZM370.216 89.549H383.629C388.214 89.549 391.558 88.6751 393.661 86.9272C395.763 85.154 396.814 82.7982 396.814 79.8597C396.814 77.7066 396.295 75.8067 395.256 74.1602C394.218 72.5136 392.736 71.2217 390.811 70.2844C388.911 69.3472 386.644 68.8785 384.009 68.8785H370.216V89.549ZM370.216 57.7454H382.413C384.668 57.7454 386.669 57.3527 388.417 56.5675C390.19 55.7569 391.583 54.617 392.597 53.1477C393.635 51.6785 394.154 49.918 394.154 47.8661C394.154 45.0543 393.154 42.7872 391.153 41.0646C389.177 39.3421 386.365 38.4808 382.717 38.4808H370.216V57.7454Z" fill="#CC8073"/>
<path d="M474.763 103V25.1818H505.465C511.367 25.1818 516.396 26.3091 520.55 28.5636C524.704 30.7927 527.871 33.8958 530.049 37.8729C532.253 41.8246 533.355 46.3842 533.355 51.5518C533.355 56.7195 532.241 61.2791 530.011 65.2308C527.782 69.1825 524.552 72.2603 520.322 74.4641C516.117 76.668 511.025 77.7699 505.047 77.7699H485.479V64.5849H502.387C505.554 64.5849 508.163 64.0402 510.215 62.951C512.292 61.8364 513.837 60.3039 514.85 58.3533C515.889 56.3775 516.408 54.1103 516.408 51.5518C516.408 48.968 515.889 46.7135 514.85 44.7883C513.837 42.8378 512.292 41.3306 510.215 40.2667C508.138 39.1774 505.503 38.6328 502.311 38.6328H491.216V103H474.763Z" fill="#E7DD88"/>
<path d="M666.274 64.0909C666.274 72.5769 664.666 79.7964 661.449 85.7493C658.257 91.7022 653.9 96.2492 648.377 99.3903C642.881 102.506 636.7 104.064 629.835 104.064C622.919 104.064 616.713 102.493 611.216 99.3523C605.719 96.2112 601.375 91.6642 598.183 85.7113C594.991 79.7584 593.396 72.5516 593.396 64.0909C593.396 55.6049 594.991 48.3854 598.183 42.4325C601.375 36.4796 605.719 31.9453 611.216 28.8295C616.713 25.6884 622.919 24.1179 629.835 24.1179C636.7 24.1179 642.881 25.6884 648.377 28.8295C653.9 31.9453 658.257 36.4796 661.449 42.4325C664.666 48.3854 666.274 55.6049 666.274 64.0909ZM649.593 64.0909C649.593 58.594 648.77 53.9583 647.124 50.1839C645.502 46.4096 643.21 43.5471 640.246 41.5966C637.282 39.6461 633.812 38.6708 629.835 38.6708C625.858 38.6708 622.387 39.6461 619.424 41.5966C616.46 43.5471 614.155 46.4096 612.508 50.1839C610.887 53.9583 610.076 58.594 610.076 64.0909C610.076 69.5878 610.887 74.2235 612.508 77.9979C614.155 81.7723 616.46 84.6347 619.424 86.5852C622.387 88.5357 625.858 89.511 629.835 89.511C633.812 89.511 637.282 88.5357 640.246 86.5852C643.21 84.6347 645.502 81.7723 647.124 77.9979C648.77 74.2235 649.593 69.5878 649.593 64.0909Z" fill="#A9AFCF"/>
<path d="M841.8 38.7468V25.1818H905.711V38.7468H881.887V103H865.624V38.7468H841.8Z" fill="#7D8F78"/>
<path d="M975.921 103.988C973.413 103.988 971.26 103.101 969.461 101.328C967.688 99.5296 966.801 97.3764 966.801 94.8686C966.801 92.3861 967.688 90.2583 969.461 88.4851C971.26 86.7119 973.413 85.8253 975.921 85.8253C978.353 85.8253 980.48 86.7119 982.304 88.4851C984.128 90.2583 985.04 92.3861 985.04 94.8686C985.04 96.5405 984.609 98.073 983.748 99.4663C982.912 100.834 981.81 101.936 980.442 102.772C979.075 103.583 977.567 103.988 975.921 103.988ZM1039.68 104.14C1033.7 104.14 1028.56 102.873 1024.25 100.34C1019.97 97.7817 1016.68 94.2353 1014.37 89.701C1012.09 85.1667 1010.95 79.9484 1010.95 74.0462C1010.95 68.0679 1012.11 62.8243 1014.41 58.3153C1016.74 53.781 1020.05 50.2473 1024.33 47.7141C1028.61 45.1557 1033.7 43.8764 1039.6 43.8764C1044.7 43.8764 1049.15 44.801 1052.98 46.6502C1056.8 48.4994 1059.83 51.0959 1062.06 54.4396C1064.29 57.7834 1065.52 61.7098 1065.75 66.2188H1050.47C1050.04 63.3056 1048.9 60.9625 1047.05 59.1893C1045.23 57.3907 1042.83 56.4915 1039.87 56.4915C1037.36 56.4915 1035.17 57.1754 1033.3 58.5433C1031.45 59.8859 1030 61.8491 1028.96 64.4329C1027.93 67.0167 1027.41 70.1451 1027.41 73.8182C1027.41 77.5419 1027.91 80.7083 1028.93 83.3175C1029.97 85.9266 1031.42 87.9151 1033.3 89.283C1035.17 90.6509 1037.36 91.3349 1039.87 91.3349C1041.72 91.3349 1043.38 90.9549 1044.85 90.195C1046.34 89.435 1047.57 88.3331 1048.53 86.8892C1049.52 85.42 1050.17 83.6594 1050.47 81.6076H1065.75C1065.49 86.0659 1064.28 89.9923 1062.1 93.3867C1059.94 96.7558 1056.97 99.3903 1053.17 101.29C1049.37 103.19 1044.87 104.14 1039.68 104.14ZM1117.46 104.14C1111.56 104.14 1106.45 102.886 1102.15 100.378C1097.87 97.8451 1094.56 94.324 1092.23 89.815C1089.9 85.2807 1088.73 80.0244 1088.73 74.0462C1088.73 68.0173 1089.9 62.7483 1092.23 58.2393C1094.56 53.705 1097.87 50.1839 1102.15 47.6761C1106.45 45.143 1111.56 43.8764 1117.46 43.8764C1123.36 43.8764 1128.45 45.143 1132.73 47.6761C1137.04 50.1839 1140.36 53.705 1142.69 58.2393C1145.02 62.7483 1146.19 68.0173 1146.19 74.0462C1146.19 80.0244 1145.02 85.2807 1142.69 89.815C1140.36 94.324 1137.04 97.8451 1132.73 100.378C1128.45 102.886 1123.36 104.14 1117.46 104.14ZM1117.54 91.6009C1120.22 91.6009 1122.46 90.8409 1124.26 89.321C1126.06 87.7758 1127.41 85.6733 1128.33 83.0135C1129.26 80.3537 1129.73 77.3266 1129.73 73.9322C1129.73 70.5378 1129.26 67.5107 1128.33 64.8509C1127.41 62.1911 1126.06 60.0885 1124.26 58.5433C1122.46 56.9981 1120.22 56.2255 1117.54 56.2255C1114.82 56.2255 1112.55 56.9981 1110.7 58.5433C1108.87 60.0885 1107.49 62.1911 1106.55 64.8509C1105.64 67.5107 1105.19 70.5378 1105.19 73.9322C1105.19 77.3266 1105.64 80.3537 1106.55 83.0135C1107.49 85.6733 1108.87 87.7758 1110.7 89.321C1112.55 90.8409 1114.82 91.6009 1117.54 91.6009ZM1171.69 103V44.6364H1187.12V54.9336H1187.8C1189.02 51.5138 1191.04 48.816 1193.88 46.8402C1196.72 44.8643 1200.11 43.8764 1204.06 43.8764C1208.07 43.8764 1211.47 44.877 1214.29 46.8782C1217.1 48.854 1218.97 51.5392 1219.91 54.9336H1220.52C1221.71 51.5898 1223.86 48.9174 1226.98 46.9162C1230.12 44.8897 1233.83 43.8764 1238.11 43.8764C1243.56 43.8764 1247.98 45.6116 1251.37 49.082C1254.79 52.5271 1256.5 57.4161 1256.5 63.7489V103H1240.35V66.9407C1240.35 63.6983 1239.49 61.2665 1237.77 59.6452C1236.05 58.024 1233.89 57.2134 1231.31 57.2134C1228.37 57.2134 1226.08 58.1507 1224.43 60.0252C1222.78 61.8744 1221.96 64.3189 1221.96 67.3587V103H1206.27V66.5987C1206.27 63.7363 1205.44 61.4564 1203.8 59.7592C1202.18 58.062 1200.04 57.2134 1197.38 57.2134C1195.58 57.2134 1193.96 57.6694 1192.51 58.5813C1191.09 59.4679 1189.97 60.7218 1189.13 62.343C1188.3 63.9389 1187.88 65.8134 1187.88 67.9666V103H1171.69Z" fill="black"/>
</svg>
